<?xml version="1.0" encoding="utf-8"?>
<!-- Generator: Adobe Illustrator 22.1.0, SVG Export Plug-In . SVG Version: 6.00 Build 0)  -->
<svg version="1.1" id="Layer_1" xmlns="http://www.w3.org/2000/svg" xmlns:xlink="http://www.w3.org/1999/xlink" x="0px" y="0px"
	 viewBox="0 0 512 512" style="enable-background:new 0 0 512 512;" xml:space="preserve">
<style type="text/css">
	.st0{fill:#4F5AA8;}
	.st1{fill:#458FDE;}
	.st2{fill:#E5E5E5;}
	.st3{fill:#FFFFFF;}
	.st4{fill:#666666;}
	.st5{fill:#FFD652;}
	.st6{fill:#F7EDBC;}
	.st7{fill:#FB9D46;}
	.st8{fill:#FF7452;}
	.st9{fill:#4C4C4C;}
	.st10{fill:#AFF078;}
	.st11{display:none;fill:#E5E5E5;}
	.st12{display:none;fill:#CCCCCC;}
	.st13{fill:#B2B2B2;}
	.st14{display:none;fill:#FB9D46;}
</style>
<path class="st0" d="M387.8,166.5c-4.6,0-8.2-3.7-8.2-8.2v-52.7c0-4.6,3.7-8.2,8.2-8.2s8.2,3.7,8.2,8.2v52.7
	C396.1,162.8,392.4,166.5,387.8,166.5z"/>
<path class="st1" d="M494.4,105.5H281.3c-9.1,0-16.5-7.4-16.5-16.5V16.5c0-9.1,7.4-16.5,16.5-16.5h213.1c9.1,0,16.5,7.4,16.5,16.5
	V89C510.9,98.1,503.5,105.5,494.4,105.5z"/>
<g>
	<path class="st0" d="M282.4,89V16.5c0-9.1,7.4-16.5,16.5-16.5h-17.6c-9.1,0-16.5,7.4-16.5,16.5V89c0,9.1,7.4,16.5,16.5,16.5h17.6
		C289.7,105.5,282.4,98.1,282.4,89z"/>
	<path class="st0" d="M306,83.5c-10.6,0-19.2-8.6-19.2-19.2V41.2c0-10.6,8.6-19.2,19.2-19.2h163.7c10.6,0,19.2,8.6,19.2,19.2v23.1
		c0,10.6-8.6,19.2-19.2,19.2H306z"/>
</g>
<path class="st2" d="M297.8,64.3V41.2c0-4.6,3.7-8.2,8.2-8.2h163.7c4.6,0,8.2,3.7,8.2,8.2v23.1c0,4.6-3.7,8.2-8.2,8.2H306
	C301.4,72.5,297.8,68.8,297.8,64.3z"/>
<g>
	<polygon class="st3" points="401.8,33 362.2,72.5 376.1,72.5 415.7,33 	"/>
	<polygon class="st3" points="434,33 394.4,72.5 422.3,72.5 461.8,33 	"/>
</g>
<path class="st4" d="M494.4,512H17.6c-9.1,0-16.5-7.4-16.5-16.5V191.2c0-18.2,14.8-33,33-33h443.9c18.2,0,33,14.8,33,33v304.3
	C510.9,504.6,503.5,512,494.4,512z"/>
<path class="st5" d="M494.4,512H17.6c-9.1,0-16.5-7.4-16.5-16.5v-91.2h509.8v91.2C510.9,504.6,503.5,512,494.4,512z"/>
<rect x="1.1" y="404.3" class="st6" width="509.8" height="21"/>
<path class="st7" d="M1.1,483.8v11.7c0,9.1,7.4,16.5,16.5,16.5h476.8c9.1,0,16.5-7.4,16.5-16.5v-11.7H1.1z"/>
<circle class="st8" cx="256" cy="457.1" r="24.2"/>
<path class="st9" d="M325.2,261.5c-15.1,0-27.5-12.3-27.5-27.5v-28.6c0-15.1,12.3-27.5,27.5-27.5h142.8c15.1,0,27.5,12.3,27.5,27.5
	V234c0,15.1-12.3,27.5-27.5,27.5H325.2z"/>
<path class="st10" d="M468.1,250.5H325.2c-9.1,0-16.5-7.4-16.5-16.5v-28.6c0-9.1,7.4-16.5,16.5-16.5h142.8c9.1,0,16.5,7.4,16.5,16.5
	V234C484.5,243.1,477.2,250.5,468.1,250.5z"/>
<g>
	<polygon class="st3" points="444.4,189 430.7,189 369.2,250.5 382.9,250.5 	"/>
	<path class="st3" d="M468.1,189h-5.5L401,250.5h31.9l50.6-50.6C481.2,193.5,475.2,189,468.1,189z"/>
</g>
<path class="st10" d="M325.2,189c-9.1,0-16.5,7.4-16.5,16.5v15.7L341,189H325.2z"/>
<path class="st11" d="M215.3,250.5H74.7v-234C74.7,7.4,82.1,0,91.2,0h107.7c9.1,0,16.5,7.4,16.5,16.5V250.5z"/>
<path class="st12" d="M96.4,0h-5.2c-9.1,0-16.5,7.4-16.5,16.5v234h77.1L96.4,0z"/>
<path class="st9" d="M247.2,258.7H42.8c-4.6,0-8.2-3.7-8.2-8.2s3.7-8.2,8.2-8.2h204.4c4.6,0,8.2,3.7,8.2,8.2
	S251.8,258.7,247.2,258.7z"/>
<g>
	<path class="st13" d="M176.9,188.4h-59.3c-4.6,0-8.2-3.7-8.2-8.2s3.7-8.2,8.2-8.2h59.3c4.6,0,8.2,3.7,8.2,8.2
		S181.4,188.4,176.9,188.4z"/>
	<path class="st13" d="M176.9,223.6h-59.3c-4.6,0-8.2-3.7-8.2-8.2s3.7-8.2,8.2-8.2h59.3c4.6,0,8.2,3.7,8.2,8.2
		S181.4,223.6,176.9,223.6z"/>
</g>
<path class="st14" d="M176.9,58.8c4.6,0,8.2-3.7,8.2-8.2s-3.7-8.2-8.2-8.2h-22.5V33c0-4.6-3.7-8.2-8.2-8.2s-8.2,3.7-8.2,8.2v9.3
	h-7.1c-10.6,0-19.2,8.6-19.2,19.2v17.6c0,10.6,8.6,19.2,19.2,19.2h7.1v23.1h-22.5c-4.6,0-8.2,3.7-8.2,8.2s3.7,8.2,8.2,8.2h22.5v9.3
	c0,4.6,3.7,8.2,8.2,8.2s8.2-3.7,8.2-8.2v-9.3h7.1c10.6,0,19.2-8.6,19.2-19.2v-17.6c0-10.6-8.6-19.2-19.2-19.2h-7.1V58.8H176.9z
	 M161.5,98.3c1.5,0,2.7,1.2,2.7,2.7v17.6c0,1.5-1.2,2.7-2.7,2.7h-7.1V98.3H161.5z M137.9,81.9h-7.1c-1.5,0-2.7-1.2-2.7-2.7V61.5
	c0-1.5,1.2-2.7,2.7-2.7h7.1V81.9z"/>
</svg>
