<?xml version="1.0" encoding="utf-8"?>
<!-- Generator: Adobe Illustrator 22.1.0, SVG Export Plug-In . SVG Version: 6.00 Build 0)  -->
<svg version="1.1" id="Layer_1" xmlns="http://www.w3.org/2000/svg" xmlns:xlink="http://www.w3.org/1999/xlink" x="0px" y="0px"
	 viewBox="0 0 132 214.5" style="enable-background:new 0 0 132 214.5;" xml:space="preserve">
<style type="text/css">
	.st0{fill:#FFFFFF;}
</style>
<g>
	<g>
		<path class="st0" d="M114.5,0c0,6.7-5.4,12.1-12.1,12.1c-6.7,0-12.1-5.4-12.1-12.1H78.1c0,6.7-5.4,12.1-12.1,12.1S53.9,6.7,53.9,0
			H41.7c0,6.7-5.4,12.1-12.1,12.1c-6.7,0-12.1-5.4-12.1-12.1H0v214.5h17.5c0.3-6.5,5.6-11.6,12.1-11.6c6.5,0,11.8,5.2,12.1,11.6
			h12.2c0.3-6.5,5.6-11.6,12.1-11.6s11.8,5.2,12.1,11.6h12.2c0.3-6.5,5.6-11.6,12.1-11.6s11.8,5.2,12.1,11.6H132V0H114.5z"/>
	</g>
</g>
</svg>
