<?xml version="1.0" encoding="utf-8"?>
<!-- Generator: Adobe Illustrator 22.1.0, SVG Export Plug-In . SVG Version: 6.00 Build 0)  -->
<svg version="1.1" id="Layer_1" xmlns="http://www.w3.org/2000/svg" xmlns:xlink="http://www.w3.org/1999/xlink" x="0px" y="0px"
	 viewBox="0 0 512 512" style="enable-background:new 0 0 512 512;" xml:space="preserve">
<style type="text/css">
	.st0{fill:#F7B239;}
	.st1{fill:#E5A030;}
</style>
<g>
	<polyline class="st0" points="431.3,177.7 431.3,448.5 472.1,448.5 486.7,211.1 488.8,177.7 462.5,153.7 431.3,177.7 	"/>
	<polyline class="st0" points="23.2,177.7 25.3,211.1 39.9,448.5 80.7,448.5 80.7,177.7 48.2,151.2 23.2,177.7 	"/>
	<polygon class="st0" points="477,99.8 356.6,99.8 271.5,99.8 136,99.8 57.6,99.8 0,99.8 0,177.7 23.2,177.7 135.6,177.7 
		356.2,177.7 415.5,177.7 431.3,177.7 488.8,177.7 512,177.7 512,99.8 	"/>
	<polyline class="st1" points="80.7,177.7 23.2,177.7 25.3,211.1 80.7,211.1 80.7,177.7 	"/>
	<polyline class="st1" points="488.8,177.7 431.3,177.7 431.3,211.1 486.7,211.1 488.8,177.7 	"/>
</g>
</svg>
